<svg width="21" height="15" viewBox="0 0 21 15" fill="none" xmlns="http://www.w3.org/2000/svg">
<path d="M19.5562 6.375H1.44375C0.853496 6.375 0.375 6.8535 0.375 7.44375V7.55625C0.375 8.1465 0.853496 8.625 1.44375 8.625H19.5562C20.1465 8.625 20.625 8.1465 20.625 7.55625V7.44375C20.625 6.8535 20.1465 6.375 19.5562 6.375Z" fill="#14253E"/>
<path d="M19.5562 12H1.44375C0.853496 12 0.375 12.4785 0.375 13.0688V13.1812C0.375 13.7715 0.853496 14.25 1.44375 14.25H19.5562C20.1465 14.25 20.625 13.7715 20.625 13.1812V13.0688C20.625 12.4785 20.1465 12 19.5562 12Z" fill="#14253E"/>
<path d="M19.5562 0.75H1.44375C0.853496 0.75 0.375 1.2285 0.375 1.81875V1.93125C0.375 2.5215 0.853496 3 1.44375 3H19.5562C20.1465 3 20.625 2.5215 20.625 1.93125V1.81875C20.625 1.2285 20.1465 0.75 19.5562 0.75Z" fill="#14253E"/>
</svg>
