<svg width="12" height="12" viewBox="0 0 12 12" fill="none" xmlns="http://www.w3.org/2000/svg">
<path d="M7.05745 6.00002L11.7825 1.28252C11.9237 1.14129 12.003 0.949743 12.003 0.750017C12.003 0.550291 11.9237 0.358745 11.7825 0.217517C11.6412 0.0762892 11.4497 -0.00305176 11.25 -0.00305176C11.0502 -0.00305176 10.8587 0.0762892 10.7175 0.217517L5.99995 4.94252L1.28245 0.217517C1.14123 0.0762892 0.949681 -0.00305158 0.749954 -0.00305158C0.550228 -0.00305158 0.358682 0.0762892 0.217454 0.217517C0.0762264 0.358745 -0.0031144 0.550291 -0.0031144 0.750017C-0.0031144 0.949743 0.0762264 1.14129 0.217454 1.28252L4.94245 6.00002L0.217454 10.7175C0.147158 10.7872 0.0913623 10.8702 0.0532858 10.9616C0.0152093 11.053 -0.00439453 11.151 -0.00439453 11.25C-0.00439453 11.349 0.0152093 11.4471 0.0532858 11.5384C0.0913623 11.6298 0.147158 11.7128 0.217454 11.7825C0.287176 11.8528 0.370127 11.9086 0.461522 11.9467C0.552916 11.9848 0.650945 12.0044 0.749954 12.0044C0.848963 12.0044 0.946992 11.9848 1.03839 11.9467C1.12978 11.9086 1.21273 11.8528 1.28245 11.7825L5.99995 7.05752L10.7175 11.7825C10.7872 11.8528 10.8701 11.9086 10.9615 11.9467C11.0529 11.9848 11.1509 12.0044 11.25 12.0044C11.349 12.0044 11.447 11.9848 11.5384 11.9467C11.6298 11.9086 11.7127 11.8528 11.7825 11.7825C11.8528 11.7128 11.9085 11.6298 11.9466 11.5384C11.9847 11.4471 12.0043 11.349 12.0043 11.25C12.0043 11.151 11.9847 11.053 11.9466 10.9616C11.9085 10.8702 11.8528 10.7872 11.7825 10.7175L7.05745 6.00002Z" fill="#14253E"/>
</svg>
