<svg width="118" height="46" viewBox="0 0 118 46" fill="none" xmlns="http://www.w3.org/2000/svg">
<path d="M2.05486 20C1.8512 20 1.69383 19.9445 1.58274 19.8334C1.47166 19.7038 1.41611 19.5464 1.41611 19.3613V1.22651C1.41611 1.02285 1.47166 0.865483 1.58274 0.754398C1.69383 0.624797 1.8512 0.559997 2.05486 0.559997H3.4712C3.67486 0.559997 3.83223 0.624797 3.94331 0.754398C4.07291 0.865483 4.13771 1.02285 4.13771 1.22651V8.89143H13.6911V1.22651C13.6911 1.02285 13.7466 0.865483 13.8577 0.754398C13.9873 0.624797 14.1447 0.559997 14.3298 0.559997H15.7462C15.9498 0.559997 16.1072 0.624797 16.2183 0.754398C16.3479 0.865483 16.4127 1.02285 16.4127 1.22651V19.3613C16.4127 19.5464 16.3479 19.7038 16.2183 19.8334C16.1072 19.9445 15.9498 20 15.7462 20H14.3298C14.1447 20 13.9873 19.9445 13.8577 19.8334C13.7466 19.7038 13.6911 19.5464 13.6911 19.3613V11.3909H4.13771V19.3613C4.13771 19.5464 4.07291 19.7038 3.94331 19.8334C3.83223 19.9445 3.67486 20 3.4712 20H2.05486ZM26.6018 20.2777C24.6948 20.2777 23.1766 19.6945 22.0473 18.5281C20.9179 17.3432 20.2977 15.7325 20.1866 13.6959C20.1681 13.4552 20.1588 13.1497 20.1588 12.7794C20.1588 12.3906 20.1681 12.0759 20.1866 11.8352C20.2606 10.5207 20.5661 9.3728 21.103 8.39154C21.6399 7.39177 22.3713 6.62343 23.297 6.08651C24.2412 5.5496 25.3428 5.28114 26.6018 5.28114C28.0089 5.28114 29.1845 5.57737 30.1287 6.16983C31.0915 6.76228 31.8228 7.60468 32.3227 8.69703C32.8226 9.78937 33.0725 11.0669 33.0725 12.5295V13.0016C33.0725 13.2053 33.0077 13.3626 32.8781 13.4737C32.767 13.5848 32.6189 13.6403 32.4338 13.6403H22.8249C22.8249 13.6589 22.8249 13.6959 22.8249 13.7514C22.8249 13.807 22.8249 13.8533 22.8249 13.8903C22.8619 14.6494 23.0285 15.3622 23.3247 16.0287C23.621 16.6767 24.0468 17.2043 24.6022 17.6117C25.1577 18.019 25.8242 18.2226 26.6018 18.2226C27.2683 18.2226 27.8237 18.1208 28.2681 17.9171C28.7124 17.7135 29.0734 17.4913 29.3511 17.2506C29.6289 16.9914 29.814 16.797 29.9066 16.6674C30.0732 16.4267 30.2028 16.2879 30.2954 16.2509C30.3879 16.1953 30.5361 16.1675 30.7397 16.1675H32.0727C32.2579 16.1675 32.406 16.2231 32.5171 16.3342C32.6467 16.4267 32.7022 16.5656 32.6837 16.7507C32.6652 17.0285 32.5171 17.371 32.2394 17.7783C31.9617 18.1671 31.5636 18.5559 31.0452 18.9447C30.5268 19.3335 29.8973 19.6575 29.1567 19.9167C28.4162 20.1574 27.5645 20.2777 26.6018 20.2777ZM22.8249 11.7241H30.4342V11.6408C30.4342 10.8077 30.2769 10.0671 29.9621 9.41908C29.6659 8.77108 29.2308 8.26194 28.6569 7.89166C28.0829 7.50286 27.3979 7.30846 26.6018 7.30846C25.8057 7.30846 25.1206 7.50286 24.5467 7.89166C23.9913 8.26194 23.5654 8.77108 23.2692 9.41908C22.973 10.0671 22.8249 10.8077 22.8249 11.6408V11.7241ZM37.0597 20C36.8745 20 36.7171 19.9445 36.5875 19.8334C36.4765 19.7038 36.4209 19.5464 36.4209 19.3613V0.921026C36.4209 0.735883 36.4765 0.587769 36.5875 0.476684C36.7171 0.347083 36.8745 0.282283 37.0597 0.282283H38.3649C38.5686 0.282283 38.7259 0.347083 38.837 0.476684C38.9481 0.587769 39.0037 0.735883 39.0037 0.921026V19.3613C39.0037 19.5464 38.9481 19.7038 38.837 19.8334C38.7259 19.9445 38.5686 20 38.3649 20H37.0597ZM47.173 20.2777C46.2473 20.2777 45.4049 20.0926 44.6458 19.7223C43.8867 19.352 43.2758 18.8521 42.8129 18.2226C42.35 17.5931 42.1186 16.8803 42.1186 16.0842C42.1186 14.8067 42.637 13.7885 43.6738 13.0294C44.7106 12.2703 46.0622 11.7704 47.7284 11.5297L51.8664 10.9465V10.1411C51.8664 9.25246 51.6072 8.55817 51.0888 8.05828C50.5889 7.5584 49.765 7.30846 48.6171 7.30846C47.784 7.30846 47.1082 7.47508 46.5898 7.80834C46.0899 8.1416 45.7382 8.56743 45.5345 9.08583C45.4234 9.36354 45.229 9.5024 44.9513 9.5024H43.7016C43.4979 9.5024 43.3406 9.44686 43.2295 9.33577C43.1369 9.20617 43.0906 9.05806 43.0906 8.89143C43.0906 8.61371 43.1924 8.2712 43.3961 7.86388C43.6183 7.45657 43.9515 7.05851 44.3959 6.66971C44.8402 6.28091 45.4049 5.95691 46.0899 5.69771C46.7935 5.42 47.6451 5.28114 48.6449 5.28114C49.7558 5.28114 50.6907 5.42926 51.4498 5.72548C52.2089 6.0032 52.8014 6.38274 53.2272 6.86411C53.6715 7.34548 53.9863 7.89166 54.1714 8.50263C54.3751 9.1136 54.4769 9.73383 54.4769 10.3633V19.3613C54.4769 19.5464 54.4121 19.7038 54.2825 19.8334C54.1714 19.9445 54.0233 20 53.8382 20H52.5607C52.357 20 52.1996 19.9445 52.0886 19.8334C51.9775 19.7038 51.9219 19.5464 51.9219 19.3613V18.1671C51.6812 18.5003 51.3572 18.8336 50.9499 19.1669C50.5426 19.4816 50.0335 19.7501 49.4225 19.9722C48.8115 20.1759 48.0617 20.2777 47.173 20.2777ZM47.7562 18.1949C48.5153 18.1949 49.2096 18.0375 49.8391 17.7227C50.4686 17.3895 50.9592 16.8803 51.311 16.1953C51.6812 15.5103 51.8664 14.6494 51.8664 13.6126V12.835L48.6449 13.3071C47.3304 13.4922 46.3399 13.807 45.6734 14.2513C45.0068 14.6771 44.6736 15.2233 44.6736 15.8898C44.6736 16.4082 44.8217 16.8433 45.1179 17.1951C45.4327 17.5283 45.8215 17.7783 46.2843 17.9449C46.7657 18.1115 47.2563 18.1949 47.7562 18.1949ZM64.218 20.2777C62.311 20.2777 60.7928 19.6945 59.6634 18.5281C58.5341 17.3432 57.9138 15.7325 57.8028 13.6959C57.7842 13.4552 57.775 13.1497 57.775 12.7794C57.775 12.3906 57.7842 12.0759 57.8028 11.8352C57.8768 10.5207 58.1823 9.3728 58.7192 8.39154C59.2561 7.39177 59.9874 6.62343 60.9132 6.08651C61.8574 5.5496 62.959 5.28114 64.218 5.28114C65.625 5.28114 66.8007 5.57737 67.7449 6.16983C68.7077 6.76228 69.439 7.60468 69.9389 8.69703C70.4388 9.78937 70.6887 11.0669 70.6887 12.5295V13.0016C70.6887 13.2053 70.6239 13.3626 70.4943 13.4737C70.3832 13.5848 70.2351 13.6403 70.05 13.6403H60.441C60.441 13.6589 60.441 13.6959 60.441 13.7514C60.441 13.807 60.441 13.8533 60.441 13.8903C60.4781 14.6494 60.6447 15.3622 60.9409 16.0287C61.2372 16.6767 61.663 17.2043 62.2184 17.6117C62.7738 18.019 63.4404 18.2226 64.218 18.2226C64.8845 18.2226 65.4399 18.1208 65.8842 17.9171C66.3286 17.7135 66.6896 17.4913 66.9673 17.2506C67.245 16.9914 67.4302 16.797 67.5228 16.6674C67.6894 16.4267 67.819 16.2879 67.9116 16.2509C68.0041 16.1953 68.1522 16.1675 68.3559 16.1675H69.6889C69.8741 16.1675 70.0222 16.2231 70.1333 16.3342C70.2629 16.4267 70.3184 16.5656 70.2999 16.7507C70.2814 17.0285 70.1333 17.371 69.8556 17.7783C69.5778 18.1671 69.1798 18.5559 68.6614 18.9447C68.143 19.3335 67.5135 19.6575 66.7729 19.9167C66.0324 20.1574 65.1807 20.2777 64.218 20.2777ZM60.441 11.7241H68.0504V11.6408C68.0504 10.8077 67.893 10.0671 67.5783 9.41908C67.2821 8.77108 66.847 8.26194 66.273 7.89166C65.6991 7.50286 65.0141 7.30846 64.218 7.30846C63.4218 7.30846 62.7368 7.50286 62.1629 7.89166C61.6074 8.26194 61.1816 8.77108 60.8854 9.41908C60.5892 10.0671 60.441 10.8077 60.441 11.6408V11.7241ZM74.6758 20C74.4907 20 74.3333 19.9445 74.2037 19.8334C74.0926 19.7038 74.0371 19.5464 74.0371 19.3613V0.921026C74.0371 0.735883 74.0926 0.587769 74.2037 0.476684C74.3333 0.347083 74.4907 0.282283 74.6758 0.282283H76.0644C76.2681 0.282283 76.4254 0.347083 76.5365 0.476684C76.6476 0.587769 76.7032 0.735883 76.7032 0.921026V7.39177C77.203 6.76228 77.814 6.25314 78.5361 5.86434C79.2581 5.47554 80.1746 5.28114 81.2854 5.28114C82.4889 5.28114 83.5072 5.5496 84.3403 6.08651C85.192 6.60491 85.8307 7.33623 86.2565 8.28046C86.7009 9.20617 86.923 10.2893 86.923 11.5297V19.3613C86.923 19.5464 86.8675 19.7038 86.7564 19.8334C86.6453 19.9445 86.488 20 86.2843 20H84.8957C84.7106 20 84.5532 19.9445 84.4236 19.8334C84.3125 19.7038 84.257 19.5464 84.257 19.3613V11.6686C84.257 10.3726 83.9422 9.36354 83.3128 8.64148C82.6833 7.90091 81.7576 7.53063 80.5356 7.53063C79.3877 7.53063 78.462 7.90091 77.7585 8.64148C77.0549 9.36354 76.7032 10.3726 76.7032 11.6686V19.3613C76.7032 19.5464 76.6476 19.7038 76.5365 19.8334C76.4254 19.9445 76.2681 20 76.0644 20H74.6758ZM91.5713 20C91.3862 20 91.2288 19.9445 91.0992 19.8334C90.9881 19.7038 90.9326 19.5464 90.9326 19.3613V6.1976C90.9326 6.01246 90.9881 5.86434 91.0992 5.75326C91.2288 5.62366 91.3862 5.55885 91.5713 5.55885H92.9043C93.0895 5.55885 93.2376 5.62366 93.3487 5.75326C93.4598 5.86434 93.5153 6.01246 93.5153 6.1976V19.3613C93.5153 19.5464 93.4598 19.7038 93.3487 19.8334C93.2376 19.9445 93.0895 20 92.9043 20H91.5713ZM91.3491 2.86503C91.164 2.86503 91.0066 2.80948 90.877 2.6984C90.7659 2.5688 90.7104 2.41143 90.7104 2.22628V0.726627C90.7104 0.541483 90.7659 0.393368 90.877 0.282283C91.0066 0.152684 91.164 0.0878838 91.3491 0.0878838H93.0987C93.2839 0.0878838 93.432 0.152684 93.5431 0.282283C93.6727 0.393368 93.7375 0.541483 93.7375 0.726627V2.22628C93.7375 2.41143 93.6727 2.5688 93.5431 2.6984C93.432 2.80948 93.2839 2.86503 93.0987 2.86503H91.3491ZM98.325 20C98.1398 20 97.9824 19.9445 97.8528 19.8334C97.7418 19.7038 97.6862 19.5464 97.6862 19.3613V0.921026C97.6862 0.735883 97.7418 0.587769 97.8528 0.476684C97.9824 0.347083 98.1398 0.282283 98.325 0.282283H99.6302C99.8339 0.282283 99.9912 0.347083 100.102 0.476684C100.213 0.587769 100.269 0.735883 100.269 0.921026V19.3613C100.269 19.5464 100.213 19.7038 100.102 19.8334C99.9912 19.9445 99.8339 20 99.6302 20H98.325ZM6.80377 45.2777C4.8968 45.2777 3.37863 44.6945 2.24926 43.5281C1.11989 42.3432 0.499657 40.7325 0.388572 38.6959C0.370057 38.4552 0.3608 38.1497 0.3608 37.7794C0.3608 37.3906 0.370057 37.0759 0.388572 36.8352C0.462629 35.5207 0.768115 34.3728 1.30503 33.3915C1.84194 32.3918 2.57326 31.6234 3.49897 31.0865C4.4432 30.5496 5.5448 30.2811 6.80377 30.2811C8.21086 30.2811 9.38652 30.5774 10.3307 31.1698C11.2935 31.7623 12.0248 32.6047 12.5247 33.697C13.0246 34.7894 13.2745 36.0669 13.2745 37.5295V38.0016C13.2745 38.2053 13.2097 38.3626 13.0801 38.4737C12.969 38.5848 12.8209 38.6403 12.6358 38.6403H3.02686C3.02686 38.6589 3.02686 38.6959 3.02686 38.7514C3.02686 38.807 3.02686 38.8533 3.02686 38.8903C3.06389 39.6494 3.23051 40.3622 3.52674 41.0287C3.82297 41.6767 4.2488 42.2043 4.80423 42.6117C5.35966 43.019 6.02617 43.2226 6.80377 43.2226C7.47029 43.2226 8.02572 43.1208 8.47006 42.9171C8.9144 42.7135 9.27543 42.4913 9.55314 42.2506C9.83086 41.9914 10.016 41.797 10.1086 41.6674C10.2752 41.4267 10.4048 41.2879 10.4974 41.2509C10.5899 41.1953 10.7381 41.1675 10.9417 41.1675H12.2747C12.4599 41.1675 12.608 41.2231 12.7191 41.3342C12.8487 41.4267 12.9042 41.5656 12.8857 41.7507C12.8672 42.0285 12.7191 42.371 12.4414 42.7783C12.1637 43.1671 11.7656 43.5559 11.2472 43.9447C10.7288 44.3335 10.0993 44.6575 9.35874 44.9167C8.61817 45.1574 7.76652 45.2777 6.80377 45.2777ZM3.02686 36.7241H10.6362V36.6408C10.6362 35.8077 10.4789 35.0671 10.1641 34.4191C9.86789 33.7711 9.4328 33.2619 8.85886 32.8917C8.28492 32.5029 7.59989 32.3085 6.80377 32.3085C6.00766 32.3085 5.32263 32.5029 4.74869 32.8917C4.19326 33.2619 3.76743 33.7711 3.4712 34.4191C3.17497 35.0671 3.02686 35.8077 3.02686 36.6408V36.7241ZM24.4022 45C24.1985 45 24.0412 44.9445 23.9301 44.8334C23.819 44.7038 23.7634 44.5464 23.7634 44.3613V26.2265C23.7634 26.0229 23.819 25.8655 23.9301 25.7544C24.0412 25.6248 24.1985 25.56 24.4022 25.56H25.6797C25.9018 25.56 26.0685 25.6155 26.1796 25.7266C26.2906 25.8192 26.3554 25.8933 26.374 25.9488L35.5941 40.1122V26.2265C35.5941 26.0229 35.6496 25.8655 35.7607 25.7544C35.8718 25.6248 36.0292 25.56 36.2328 25.56H37.5658C37.7695 25.56 37.9269 25.6248 38.038 25.7544C38.1676 25.8655 38.2324 26.0229 38.2324 26.2265V44.3335C38.2324 44.5186 38.1676 44.676 38.038 44.8056C37.9269 44.9352 37.7788 45 37.5936 45H36.2606C36.0569 45 35.8996 44.9445 35.7885 44.8334C35.6959 44.7223 35.6311 44.6482 35.5941 44.6112L26.4017 30.5866V44.3613C26.4017 44.5464 26.3369 44.7038 26.2073 44.8334C26.0962 44.9445 25.9389 45 25.7352 45H24.4022ZM43.3239 45C43.1387 45 42.9813 44.9445 42.8517 44.8334C42.7407 44.7038 42.6851 44.5464 42.6851 44.3613V31.1976C42.6851 31.0125 42.7407 30.8643 42.8517 30.7533C42.9813 30.6237 43.1387 30.5589 43.3239 30.5589H44.6569C44.842 30.5589 44.9901 30.6237 45.1012 30.7533C45.2123 30.8643 45.2679 31.0125 45.2679 31.1976V44.3613C45.2679 44.5464 45.2123 44.7038 45.1012 44.8334C44.9901 44.9445 44.842 45 44.6569 45H43.3239ZM43.1017 27.865C42.9165 27.865 42.7592 27.8095 42.6296 27.6984C42.5185 27.5688 42.4629 27.4114 42.4629 27.2263V25.7266C42.4629 25.5415 42.5185 25.3934 42.6296 25.2823C42.7592 25.1527 42.9165 25.0879 43.1017 25.0879H44.8513C45.0364 25.0879 45.1845 25.1527 45.2956 25.2823C45.4252 25.3934 45.49 25.5415 45.49 25.7266V27.2263C45.49 27.4114 45.4252 27.5688 45.2956 27.6984C45.1845 27.8095 45.0364 27.865 44.8513 27.865H43.1017ZM54.5726 45.2777C53.5358 45.2777 52.6471 45.1481 51.9065 44.8889C51.166 44.6297 50.5642 44.315 50.1014 43.9447C49.6385 43.5744 49.2868 43.2041 49.0461 42.8338C48.8239 42.4635 48.7036 42.1673 48.685 41.9451C48.6665 41.7415 48.7313 41.5841 48.8794 41.473C49.0276 41.3619 49.1757 41.3064 49.3238 41.3064H50.5457C50.6568 41.3064 50.7401 41.3249 50.7957 41.3619C50.8697 41.3805 50.9623 41.4545 51.0734 41.5841C51.3141 41.8433 51.5825 42.1025 51.8788 42.3617C52.175 42.6209 52.536 42.8338 52.9618 43.0005C53.4062 43.1671 53.9524 43.2504 54.6004 43.2504C55.5446 43.2504 56.3222 43.0745 56.9332 42.7227C57.5441 42.3525 57.8496 41.8155 57.8496 41.112C57.8496 40.6491 57.72 40.2789 57.4608 40.0011C57.2201 39.7234 56.7758 39.4735 56.1278 39.2513C55.4983 39.0291 54.6281 38.7977 53.5173 38.557C52.4064 38.2978 51.527 37.9831 50.879 37.6128C50.231 37.224 49.7681 36.7704 49.4904 36.252C49.2127 35.7151 49.0738 35.1134 49.0738 34.4469C49.0738 33.7618 49.2775 33.1046 49.6848 32.4751C50.0921 31.8271 50.6846 31.2994 51.4622 30.8921C52.2583 30.4848 53.2488 30.2811 54.4337 30.2811C55.3965 30.2811 56.2204 30.4015 56.9054 30.6422C57.5904 30.8829 58.1551 31.1883 58.5994 31.5586C59.0438 31.9104 59.377 32.2622 59.5992 32.6139C59.8214 32.9657 59.9417 33.2619 59.9602 33.5026C59.9788 33.6878 59.9232 33.8451 59.7936 33.9747C59.664 34.0858 59.5159 34.1414 59.3493 34.1414H58.1829C58.0533 34.1414 57.9422 34.1136 57.8496 34.0581C57.7756 34.0025 57.7015 33.9377 57.6274 33.8637C57.4423 33.623 57.2201 33.3823 56.9609 33.1416C56.7202 32.9009 56.3962 32.7065 55.9889 32.5584C55.6001 32.3918 55.0817 32.3085 54.4337 32.3085C53.508 32.3085 52.8137 32.5029 52.3509 32.8917C51.888 33.2805 51.6566 33.7711 51.6566 34.3635C51.6566 34.7153 51.7584 35.0301 51.9621 35.3078C52.1657 35.5855 52.5545 35.8354 53.1285 36.0576C53.7024 36.2798 54.5541 36.5205 55.6834 36.7797C56.9054 37.0203 57.8681 37.3443 58.5717 37.7517C59.2752 38.159 59.7751 38.6311 60.0713 39.168C60.3676 39.7049 60.5157 40.3251 60.5157 41.0287C60.5157 41.8063 60.2842 42.5191 59.8214 43.1671C59.377 43.8151 58.7105 44.3335 57.8218 44.7223C56.9517 45.0926 55.8686 45.2777 54.5726 45.2777ZM64.3694 45C64.1842 45 64.0269 44.9445 63.8973 44.8334C63.7862 44.7038 63.7306 44.5464 63.7306 44.3613V31.1976C63.7306 31.0125 63.7862 30.8643 63.8973 30.7533C64.0269 30.6237 64.1842 30.5589 64.3694 30.5589H65.7024C65.8876 30.5589 66.0357 30.6237 66.1468 30.7533C66.2579 30.8643 66.3134 31.0125 66.3134 31.1976V44.3613C66.3134 44.5464 66.2579 44.7038 66.1468 44.8334C66.0357 44.9445 65.8876 45 65.7024 45H64.3694ZM64.1472 27.865C63.9621 27.865 63.8047 27.8095 63.6751 27.6984C63.564 27.5688 63.5085 27.4114 63.5085 27.2263V25.7266C63.5085 25.5415 63.564 25.3934 63.6751 25.2823C63.8047 25.1527 63.9621 25.0879 64.1472 25.0879H65.8968C66.082 25.0879 66.2301 25.1527 66.3412 25.2823C66.4708 25.3934 66.5356 25.5415 66.5356 25.7266V27.2263C66.5356 27.4114 66.4708 27.5688 66.3412 27.6984C66.2301 27.8095 66.082 27.865 65.8968 27.865H64.1472ZM70.3144 45C70.1293 45 69.9719 44.9445 69.8423 44.8334C69.7312 44.7038 69.6757 44.5464 69.6757 44.3613V43.3893C69.6757 43.2226 69.7127 43.0653 69.7868 42.9171C69.8793 42.769 69.9719 42.6302 70.0645 42.5006L77.7294 32.7528H70.5644C70.3792 32.7528 70.2219 32.6973 70.0923 32.5862C69.9812 32.4751 69.9256 32.3177 69.9256 32.1141V31.1976C69.9256 31.0125 69.9812 30.8643 70.0923 30.7533C70.2219 30.6237 70.3792 30.5589 70.5644 30.5589H80.451C80.6362 30.5589 80.7843 30.6237 80.8954 30.7533C81.025 30.8643 81.0898 31.0125 81.0898 31.1976V32.2251C81.0898 32.3918 81.0435 32.5399 80.9509 32.6695C80.8768 32.7991 80.7935 32.9379 80.701 33.0861L73.1193 42.8061H81.0064C81.1916 42.8061 81.3397 42.8616 81.4508 42.9727C81.5804 43.0838 81.6452 43.2411 81.6452 43.4448V44.3613C81.6452 44.5464 81.5804 44.7038 81.4508 44.8334C81.3397 44.9445 81.1916 45 81.0064 45H70.3144ZM88.7488 45.2777C87.8231 45.2777 86.9807 45.0926 86.2216 44.7223C85.4625 44.352 84.8515 43.8521 84.3887 43.2226C83.9258 42.5931 83.6944 41.8803 83.6944 41.0842C83.6944 39.8067 84.2128 38.7885 85.2496 38.0294C86.2864 37.2703 87.6379 36.7704 89.3042 36.5297L93.4422 35.9465V35.1411C93.4422 34.2525 93.183 33.5582 92.6646 33.0583C92.1647 32.5584 91.3408 32.3085 90.1929 32.3085C89.3598 32.3085 88.684 32.4751 88.1656 32.8083C87.6657 33.1416 87.3139 33.5674 87.1103 34.0858C86.9992 34.3635 86.8048 34.5024 86.5271 34.5024H85.2774C85.0737 34.5024 84.9163 34.4469 84.8053 34.3358C84.7127 34.2062 84.6664 34.0581 84.6664 33.8914C84.6664 33.6137 84.7682 33.2712 84.9719 32.8639C85.1941 32.4566 85.5273 32.0585 85.9717 31.6697C86.416 31.2809 86.9807 30.9569 87.6657 30.6977C88.3693 30.42 89.2209 30.2811 90.2207 30.2811C91.3315 30.2811 92.2665 30.4293 93.0256 30.7255C93.7847 31.0032 94.3771 31.3827 94.803 31.8641C95.2473 32.3455 95.5621 32.8917 95.7472 33.5026C95.9509 34.1136 96.0527 34.7338 96.0527 35.3633V44.3613C96.0527 44.5464 95.9879 44.7038 95.8583 44.8334C95.7472 44.9445 95.5991 45 95.4139 45H94.1365C93.9328 45 93.7754 44.9445 93.6643 44.8334C93.5533 44.7038 93.4977 44.5464 93.4977 44.3613V43.1671C93.257 43.5003 92.933 43.8336 92.5257 44.1669C92.1184 44.4816 91.6093 44.7501 90.9983 44.9722C90.3873 45.1759 89.6375 45.2777 88.7488 45.2777ZM89.332 43.1949C90.0911 43.1949 90.7854 43.0375 91.4149 42.7227C92.0443 42.3895 92.535 41.8803 92.8867 41.1953C93.257 40.5103 93.4422 39.6494 93.4422 38.6126V37.835L90.2207 38.3071C88.9062 38.4922 87.9157 38.807 87.2491 39.2513C86.5826 39.6771 86.2494 40.2233 86.2494 40.8898C86.2494 41.4082 86.3975 41.8433 86.6937 42.1951C87.0085 42.5283 87.3973 42.7783 87.8601 42.9449C88.3415 43.1115 88.8321 43.1949 89.332 43.1949ZM100.712 45C100.526 45 100.369 44.9445 100.239 44.8334C100.128 44.7038 100.073 44.5464 100.073 44.3613V25.921C100.073 25.7359 100.128 25.5878 100.239 25.4767C100.369 25.3471 100.526 25.2823 100.712 25.2823H102.017C102.202 25.2823 102.35 25.3471 102.461 25.4767C102.591 25.5878 102.656 25.7359 102.656 25.921V35.5855L108.127 31.031C108.349 30.8458 108.515 30.7255 108.626 30.6699C108.756 30.5959 108.96 30.5589 109.237 30.5589H110.709C110.876 30.5589 111.015 30.6144 111.126 30.7255C111.237 30.8366 111.292 30.9754 111.292 31.1421C111.292 31.2161 111.265 31.2994 111.209 31.392C111.172 31.4846 111.089 31.5771 110.959 31.6697L104.544 37.0018L111.654 43.9169C111.876 44.1021 111.987 44.2687 111.987 44.4168C111.987 44.5834 111.931 44.7223 111.82 44.8334C111.709 44.9445 111.57 45 111.404 45H109.959C109.682 45 109.478 44.9722 109.348 44.9167C109.219 44.8426 109.052 44.713 108.849 44.5279L102.656 38.6126V44.3613C102.656 44.5464 102.591 44.7038 102.461 44.8334C102.35 44.9445 102.202 45 102.017 45H100.712ZM115.003 45C114.818 45 114.661 44.9445 114.531 44.8334C114.42 44.7038 114.365 44.5464 114.365 44.3613V31.1976C114.365 31.0125 114.42 30.8643 114.531 30.7533C114.661 30.6237 114.818 30.5589 115.003 30.5589H116.336C116.522 30.5589 116.67 30.6237 116.781 30.7533C116.892 30.8643 116.947 31.0125 116.947 31.1976V44.3613C116.947 44.5464 116.892 44.7038 116.781 44.8334C116.67 44.9445 116.522 45 116.336 45H115.003ZM114.781 27.865C114.596 27.865 114.439 27.8095 114.309 27.6984C114.198 27.5688 114.143 27.4114 114.143 27.2263V25.7266C114.143 25.5415 114.198 25.3934 114.309 25.2823C114.439 25.1527 114.596 25.0879 114.781 25.0879H116.531C116.716 25.0879 116.864 25.1527 116.975 25.2823C117.105 25.3934 117.17 25.5415 117.17 25.7266V27.2263C117.17 27.4114 117.105 27.5688 116.975 27.6984C116.864 27.8095 116.716 27.865 116.531 27.865H114.781Z" fill="#14253E"/>
</svg>
